<svg xmlns="http://www.w3.org/2000/svg" viewBox="0 0 293.38 96.88"><defs><style>.cls-1{fill:#fff;}.cls-2{fill:#ef781d;}.cls-3{fill:#ef781a;}</style></defs><g id="Calque_2" data-name="Calque 2"><g id="Calque_1-2" data-name="Calque 1"><path class="cls-1" d="M108.32,86.15q-7.5,0-11.4-4.45T93,68.85V18.65a4.58,4.58,0,0,1,1.2-3.45,4.56,4.56,0,0,1,3.3-1.15,4.71,4.71,0,0,1,3.4,1.15,4.58,4.58,0,0,1,1.2,3.45v49.5c0,3.47.71,6,2.15,7.75a7.59,7.59,0,0,0,6.15,2.55c.6,0,1.13,0,1.6,0s.93-.08,1.4-.15a1.62,1.62,0,0,1,1.6.6,5.34,5.34,0,0,1,.5,2.8,4.61,4.61,0,0,1-.85,2.95A4.23,4.23,0,0,1,111.92,86c-.6.07-1.2.11-1.8.15S108.92,86.15,108.32,86.15Z" transform="translate(0 -14.05)"/><path class="cls-1" d="M125.12,25.25a6,6,0,0,1-4.25-1.45A5,5,0,0,1,119.32,20,4.94,4.94,0,0,1,120.87,16a7.52,7.52,0,0,1,8.6,0A5.16,5.16,0,0,1,130.92,20a5.24,5.24,0,0,1-1.45,3.85A5.9,5.9,0,0,1,125.12,25.25Zm0,60.5a4.29,4.29,0,0,1-3.3-1.3,5.12,5.12,0,0,1-1.2-3.6V41a5.07,5.07,0,0,1,1.2-3.65,4.37,4.37,0,0,1,3.3-1.25,4.51,4.51,0,0,1,3.4,1.25,5.07,5.07,0,0,1,1.2,3.65v39.9a5.29,5.29,0,0,1-1.15,3.6A4.4,4.4,0,0,1,125.12,85.75Z" transform="translate(0 -14.05)"/><path class="cls-1" d="M143.32,85.25a3.78,3.78,0,0,1-2.4-.7,3.62,3.62,0,0,1-1.25-1.8,4.25,4.25,0,0,1,0-2.4,6.69,6.69,0,0,1,1.45-2.6l27.7-36.5v2.3h-26.1a3.58,3.58,0,0,1-2.65-.95,4,4,0,0,1,0-5.15,3.68,3.68,0,0,1,2.65-.9h30.5a4.86,4.86,0,0,1,2.75.7,3.41,3.41,0,0,1,1.4,1.8,4.34,4.34,0,0,1,0,2.35,5.65,5.65,0,0,1-1.4,2.45l-28.1,36.9v-2.5h27.4q3.6,0,3.6,3.5A3.45,3.45,0,0,1,178,84.3a3.61,3.61,0,0,1-2.65,1Z" transform="translate(0 -14.05)"/><path class="cls-2" d="M190.32,85.65a5.81,5.81,0,0,1-6-6,5.49,5.49,0,0,1,1.7-4.2,6,6,0,0,1,4.3-1.6,5.44,5.44,0,0,1,5.9,5.8,6.15,6.15,0,0,1-1.55,4.3A5.62,5.62,0,0,1,190.32,85.65Z" transform="translate(0 -14.05)"/><path class="cls-1" d="M208.06,85.75a3.21,3.21,0,0,1-2.38-.86,3.41,3.41,0,0,1-.86-2.52V53a3.26,3.26,0,0,1,.86-2.48,3.31,3.31,0,0,1,2.38-.83,3.2,3.2,0,0,1,2.34.83,3.37,3.37,0,0,1,.82,2.48v6.12l-.79-1.29a12,12,0,0,1,4.43-6.12,12.36,12.36,0,0,1,7.31-2.16,11.48,11.48,0,0,1,7.2,2.12A10.69,10.69,0,0,1,233,58.11h-1a11.9,11.9,0,0,1,4.65-6.27,13.46,13.46,0,0,1,7.81-2.3A12.31,12.31,0,0,1,251,51.09a9.53,9.53,0,0,1,3.86,4.6,20.3,20.3,0,0,1,1.29,7.82V82.37a3.45,3.45,0,0,1-.86,2.52,3.21,3.21,0,0,1-2.38.86,3.31,3.31,0,0,1-2.45-.86,3.45,3.45,0,0,1-.86-2.52V63.79q0-4.6-1.58-6.76t-5.33-2.16a8.09,8.09,0,0,0-6.52,2.84q-2.41,2.85-2.41,7.81V82.37a3.53,3.53,0,0,1-.83,2.52,3.16,3.16,0,0,1-2.41.86,3.3,3.3,0,0,1-2.45-.86,3.45,3.45,0,0,1-.86-2.52V63.79q0-4.6-1.59-6.76c-1.05-1.44-2.83-2.16-5.32-2.16a8.09,8.09,0,0,0-6.52,2.84q-2.42,2.85-2.41,7.81V82.37C211.37,84.63,210.26,85.75,208.06,85.75Z" transform="translate(0 -14.05)"/><path class="cls-1" d="M279.26,85.9a20.18,20.18,0,0,1-9.75-2.2,15.26,15.26,0,0,1-6.3-6.26A19.66,19.66,0,0,1,261,67.83a20.07,20.07,0,0,1,2.19-9.58,16.18,16.18,0,0,1,6.05-6.41,16.91,16.91,0,0,1,8.82-2.3,16.25,16.25,0,0,1,6.37,1.19,13.32,13.32,0,0,1,4.86,3.42,14.92,14.92,0,0,1,3.06,5.43,23.22,23.22,0,0,1,1.05,7.24,2.22,2.22,0,0,1-.69,1.76,2.88,2.88,0,0,1-2,.61H266.09V65h23l-1.23,1a16.42,16.42,0,0,0-1.11-6.38,8.64,8.64,0,0,0-3.24-4,9.64,9.64,0,0,0-5.3-1.37,10,10,0,0,0-9.65,6.16,16.46,16.46,0,0,0-1.29,6.73v.43q0,6.48,3.1,9.79t8.92,3.31a20.49,20.49,0,0,0,4.72-.57,14.16,14.16,0,0,0,4.64-2.09,3.59,3.59,0,0,1,2-.61,2.21,2.21,0,0,1,1.48.57,2.41,2.41,0,0,1,.72,1.3,2.78,2.78,0,0,1-.22,1.62,3.34,3.34,0,0,1-1.36,1.51A18.17,18.17,0,0,1,285.56,85,23.72,23.72,0,0,1,279.26,85.9Z" transform="translate(0 -14.05)"/><path class="cls-3" d="M82.72,48.4a21.07,21.07,0,0,0-8.2-8.75A24.3,24.3,0,0,0,62,36.55a26.05,26.05,0,0,0-9.37,1.62A9,9,0,0,0,52.57,43a8.76,8.76,0,0,0,1.49,3.06,4.89,4.89,0,0,1,.41-.27,14,14,0,0,1,7.55-2,13,13,0,0,1,10.5,4.6q3.9,4.6,3.9,13.4a24.85,24.85,0,0,1-1.75,9.9,13.48,13.48,0,0,1-5,6.1A13.8,13.8,0,0,1,62,79.85,13,13,0,0,1,51.57,75.2q-4-4.65-4-13.45c0-2.56-.7-6.69-1.43-6.59,0,4.52-3.42.41-5,.34-.22,0-.31-2.49-.33-6.22a21.31,21.31,0,0,0-.82,2,31.09,31.09,0,0,0-1.65,10.45,29.12,29.12,0,0,0,2.9,13.4,20.9,20.9,0,0,0,8.2,8.8A24.28,24.28,0,0,0,62,87.05a26.05,26.05,0,0,0,9.75-1.75,20.73,20.73,0,0,0,7.45-5,22.42,22.42,0,0,0,4.75-8,31.52,31.52,0,0,0,1.65-10.5A28.94,28.94,0,0,0,82.72,48.4Z" transform="translate(0 -14.05)"/><path class="cls-3" d="M47.58,61.75a28.94,28.94,0,0,0-2.9-13.35,21,21,0,0,0-8.2-8.75A24.28,24.28,0,0,0,24,36.55a25.85,25.85,0,0,0-9.75,1.75,20.73,20.73,0,0,0-7.45,5.05A22.32,22.32,0,0,0,2,51.3,31.09,31.09,0,0,0,.38,61.75a29.24,29.24,0,0,0,2.9,13.4,21,21,0,0,0,8.2,8.8A24.28,24.28,0,0,0,24,87.05a26.09,26.09,0,0,0,9.54-1.68,6.87,6.87,0,0,0,0-5.1,6.49,6.49,0,0,0-1.92-2.52h0A18.22,18.22,0,0,1,24,79.85,13,13,0,0,1,13.53,75.2Q9.59,70.55,9.58,61.75a24.13,24.13,0,0,1,1.8-9.9,13.4,13.4,0,0,1,5-6.05,13.82,13.82,0,0,1,7.55-2,13,13,0,0,1,10.5,4.6q3.9,4.6,3.9,13.4c0,3.93-.12,22.79-.43,25.3-.41,3.39-.75,6-2.25,9-1.09,2.18-2.44,4.89-5.45,6.57s-6.1,1.38-9.07,1.08a14.44,14.44,0,0,1-6.68-2,13.44,13.44,0,0,1-5.06-5.93H0a21.27,21.27,0,0,0,.78,2.06,20.89,20.89,0,0,0,7.68,9.25,24.33,24.33,0,0,0,12.31,3.81,26,26,0,0,0,9.83-1.2,20.55,20.55,0,0,0,7.72-4.61,22.18,22.18,0,0,0,5.2-7.72A31.49,31.49,0,0,0,45.77,87,30.32,30.32,0,0,0,44.44,75.6a24.28,24.28,0,0,0,1.49-3.35A31.52,31.52,0,0,0,47.58,61.75Z" transform="translate(0 -14.05)"/></g></g></svg>